<svg xmlns="http://www.w3.org/2000/svg" viewBox="0 0 193.9 83.6">
  <defs>
    <clipPath id="a">
      <path d="M18.1 18.5v-5.1a.8.8 0 0 0 .1.4v4.7Z" class="a"/>
    </clipPath>
    <style>
      .a{fill:none}.c{isolation:isolate}.j{fill:#c22926}.m{fill:#5d6ba9}.n{fill:#6a77b0}.o{fill:#65c8d0}.p{fill:#609ba0}.q{fill:#468b90}.s{fill:#ca343d}.u{fill:#f0f0f0}
    </style>
  </defs>
  <path d="M24.8 13.6c-1.2 0-5.6-.2-7.2 2.2s-.6 3.6-.3 4.8c1.8 7.5 4.7 15.9 5.9 19.3C17.7 44 1.6 56.4 4.5 64.7c1.6 4.5 8.2 6.5 11.8 6.8l134.8 11.6c3 .6 11.2 1.6 17.7-3.4a16.6 16.6 0 0 0 2.7-2.5l14.1-27.5c2.2-.6 6.6-2 7.9-5.5s.1-4.3-1.3-8.9c-.9-3.1-2.1-7.4-3.4-12.8 2.1-3 2.6-6.3 1.3-8.2a5.6 5.6 0 0 0-2.9-1.9 12.2 12.2 0 0 0-6.1-.4c-7.7 1.4-144.6 2-156.3 1.6Z" opacity=".1"/>
  <g class="c">
    <g class="c" clip-path="url(#a)">
      <path fill="#c32d2a" d="M18.1 18.5v-5.1a.8.8 0 0 0 .1.4v4.7" class="c"/>
    </g>
    <path fill="#cc0526" d="M185.3 39a.1.1 0 0 0-.1.1.3.3 0 0 1-.1.2l-.1.1-.2.3h-.1l-.3.3h-.1l-.4.3h-.1l-.5.3h-.1l-.6.2h-.3l-.5.2h-1.9l-1.5.3h-.4l-1.5.2h-3.9v5.2h2.2l1.7-.2h1.8l1.6-.2h.2l.8-.2h1.4l.2-.1h.1l.5-.2h.5a.1.1 0 0 1 .1-.1.1.1 0 0 0 .1-.1h.2l.3-.2.3-.2a.1.1 0 0 1 .1-.1h.1l.2-.2a.1.1 0 0 0 .1-.1.1.1 0 0 1 .1-.1l.1-.3V39ZM18.1 18.9l.1-5.1L29.4 41l-.1 5.2-11.2-27.3z"/>
    <path fill="#e5e5e5" d="M171.6 39.7 44 42c-2.5 0-4.8-.5-5.1-1.1L27.8 13.6c-.3-.6 1.5-1.2 4-1.2l127.7-2.3c2.5 0 4.7.5 5 1.1l11.2 27.3c.2.6-1.6 1.2-4.1 1.2Z"/>
    <path fill="#c21926" d="m44.9 49.6.1-5.2 127.6-2.2v5.2L44.9 49.6z"/>
    <path fill="#cd3e47" d="M172.6 42.2 45 44.4c-7.8.2-14.8-1.4-15.6-3.4L18.2 13.8c-.8-2 4.8-3.8 12.6-3.9l127.7-2.2c7.7-.2 14.7 1.3 15.6 3.4l11.1 27.2c.9 2-4.8 3.8-12.6 3.9Zm-8.1-31c-.3-.6-2.5-1.1-5-1.1L31.8 12.4c-2.5 0-4.3.6-4 1.2l11.1 27.3c.3.6 2.6 1.1 5.1 1.1l127.6-2.3c2.5 0 4.3-.6 4.1-1.2l-11.2-27.3"/>
    <path d="M43.6 44.4h-6.7l-.2-.1h-1.1l-.9-.2h-.4l-.6-.2h-.6l-.4-.2h-.2l-.6-.2h-.2l-.5-.2H31l-.5-.3a.1.1 0 0 1-.1-.1l-.4-.2h-.1l-.2-.2h-.1a.8.8 0 0 1-.2-.4v5.2l.2.3h.1l.3.3.3.2h.1l.6.3h.1l.5.3h.3l.5.2h.7l.6.2h1l.8.2h9.4v-4.9Z" class="j"/>
  </g>
  <g class="c">
    <path fill="#6270ac" d="M19.8 38.5h-1.4l-.9-.2h-1.3l-.6-.2H14l-.6-.2h-1.1l-.4-.2h-.3l-.3-.2h-.2l-.3-.2h-.2l-.2-.2h-.2a.3.3 0 0 0-.1-.2H10l-.2-.3-.1-.3v4.9a.6.6 0 0 0 .1.4l.1.2h.2a.3.3 0 0 0 .1.2h.2a.2.2 0 0 0 .2.2l.2.2h.3l.2.2h.6l.4.2h8.6v-4.2Z"/>
    <path fill="#5665a6" d="M158 46.9V42l18.5-27.2-.1 5L158 46.9z"/>
    <path d="M143.8 42.4 22.6 36.1c-2.4-.1-4-.8-3.6-1.4L37.5 7.6c.4-.7 2.7-1.1 5.1-1L163.9 13c2.3.1 3.9.7 3.5 1.4l-18.5 27.1c-.4.6-2.7 1.1-5.1.9Z" class="m"/>
    <path d="M20.9 43.5v-4.9l121.3 6.3-.1 4.9-121.2-6.3z" class="n"/>
    <path d="M142.2 44.9 20.9 38.6c-7.4-.4-12.3-2.4-10.9-4.4L28.4 7.1c1.4-2 8.5-3.3 15.9-2.9l121.2 6.3c7.4.4 12.3 2.3 11 4.3L158 42c-1.3 2-8.5 3.3-15.8 2.9Zm25.2-30.5c.4-.7-1.2-1.3-3.5-1.4L42.6 6.6c-2.4-.1-4.7.3-5.1 1L19 34.7c-.4.6 1.2 1.3 3.6 1.4l121.2 6.3c2.4.2 4.7-.3 5.1-.9l18.5-27.1" class="m"/>
    <path d="m157.7 42.3-.4.3h-.1l-.5.3-.6.3h-.2l-.5.2h-1.5l-.8.2h-10.9v4.9h11l.8-.2h.3l.4-.2h1.6l.4-.2a.1.1 0 0 0 .1-.1h.5l.1-.1.3-.2h.2l.2-.2V42Z" class="n"/>
  </g>
  <g class="c">
    <path d="M46.4 5Z" class="o"/>
    <path d="M48.7 4.2v.2h-.1v-.3c.1-1.9-.3-3.5-1-3.5S46.3 2 46.2 3.9v1.3h-1V4.1c.1-2.1.7-4.1 1.9-4.1 1.2.1 1.7 2.2 1.6 4.2Z" class="p"/>
    <path d="M45.2 5Zm1.2 0Z"/>
    <path d="M48.6 4.1v.3h-1.1a5.5 5.5 0 0 0-.4-3c-.3.2-.7 1.2-.8 2.9V5a.1.1 0 0 1-.1.1V3.9C46.3 2 47 .5 47.6.6s1.1 1.6 1 3.5Z" class="q"/>
  </g>
  <g class="c">
    <path d="m51.9 5.3-.1.1h.1Z" class="o"/>
    <path d="M54.1 4.5v.2-.3c.1-1.9-.3-3.5-1-3.5s-1.3 1.4-1.4 3.3v1.2h-1a1.4 1.4 0 0 1 0-.9c0-2.1.7-4.1 1.8-4.1h.1c1.2 0 1.6 2.1 1.5 4.1Z" class="p"/>
    <path d="m50.7 5.3-.2-.1Zm1.2 0-.1.1h.1Z"/>
    <path d="M54.1 4.4v.3H53a5.1 5.1 0 0 0-.5-3 5.9 5.9 0 0 0-.7 2.9v.9h-.1V4.2c.1-1.9.7-3.4 1.4-3.3s1.1 1.6 1 3.5Z" class="q"/>
  </g>
  <g class="c">
    <path d="m57.4 5.6-.2.1h.2Z" class="o"/>
    <path d="M59.6 4.8V5h-.1a.4.4 0 0 0 .1-.3c.1-1.9-.4-3.5-1-3.5s-1.3 1.4-1.4 3.3a1.7 1.7 0 0 0 0 1v.2h-1.1v-1c.1-2.1.7-4.1 1.9-4.1 1.3.1 1.7 2.2 1.6 4.2Z" class="p"/>
    <path d="M56.1 5.6a.1.1 0 0 1-.1-.1Zm1.3 0-.2.1h.2Z"/>
    <path d="M59.6 4.7a.4.4 0 0 1-.1.3h-1a5.1 5.1 0 0 0-.5-3 5.4 5.4 0 0 0-.8 2.9v.9-.3a1.7 1.7 0 0 1 0-1c.1-1.9.7-3.4 1.4-3.3s1.1 1.6 1 3.5Z" class="q"/>
  </g>
  <g class="c">
    <path d="M62.8 5.9Z" class="o"/>
    <path d="M65.1 5.1v.2H65V5c.1-1.9-.3-3.5-1-3.5s-1.3 1.4-1.4 3.3V6h-1V5c.1-2.1.7-4.1 1.9-4.1s1.7 2.2 1.6 4.2Z" class="p"/>
    <path d="M61.6 5.9Zm1.2 0Z"/>
    <path d="M65 5v.3h-1.1a5.5 5.5 0 0 0-.4-3c-.3.2-.7 1.2-.8 2.9v.9h-.1V4.8c.1-1.9.8-3.4 1.4-3.3s1.1 1.6 1 3.5Z" class="q"/>
  </g>
  <g class="c">
    <path d="M68.3 6.2h-.1v-.1Z" class="o"/>
    <path d="M70.5 5.4v.2-.3c.1-1.9-.3-3.5-1-3.5s-1.3 1.4-1.4 3.3v1.2h-1v-.2a1.1 1.1 0 0 1 0-.8c0-2.1.7-4.1 1.8-4.1h.1c1.2 0 1.6 2.2 1.5 4.2Z" class="p"/>
    <path d="M67.1 6.1v.2Zm1.2.1h-.1v-.1Z"/>
    <path d="M70.5 5.3v.3h-1.1a5.1 5.1 0 0 0-.5-3 5.9 5.9 0 0 0-.7 2.9v1h-.1V5.1c.1-1.9.7-3.4 1.4-3.3s1.1 1.6 1 3.5Z" class="q"/>
  </g>
  <g class="c">
    <path d="M73.8 6.5h-.1v-.1Z" class="o"/>
    <path d="M76 5.7v.2h-.1a.4.4 0 0 0 .1-.3c.1-1.9-.4-3.5-1-3.5s-1.3 1.4-1.4 3.3a1.7 1.7 0 0 0 0 1v.2h-1.1v-1c.1-2.1.7-4.1 1.9-4.1h.1c1.2 0 1.6 2.2 1.5 4.2Z" class="p"/>
    <path d="M72.5 6.4v.2Zm1.3.1h-.1v-.1Z"/>
    <path d="M76 5.6a.4.4 0 0 1-.1.3h-1a5.1 5.1 0 0 0-.5-3 4.9 4.9 0 0 0-.7 2.9 1.1 1.1 0 0 0 0 .8v.2h-.1v-.4a1.7 1.7 0 0 1 0-1c.1-1.9.7-3.4 1.4-3.3s1.1 1.6 1 3.5Z" class="q"/>
  </g>
  <g class="c">
    <path d="m79.2 6.8-.1.1v-.2Z" class="o"/>
    <path d="M81.5 6v.2h-.1v-.4c.1-1.8-.3-3.4-1-3.5S79.1 3.8 79 5.7v1.2h-1v-1c.1-2.1.7-4.1 1.9-4.1S81.6 4 81.5 6Z" class="p"/>
    <path d="M78 6.7v.2l-.1-.1Zm1.2.1-.1.1v-.2Z"/>
    <path d="M81.4 5.8v.4h-1.1a5.5 5.5 0 0 0-.4-3c-.3.2-.7 1.2-.8 2.9v1H79V5.7c.1-1.9.8-3.4 1.4-3.4s1.1 1.7 1 3.5Z" class="q"/>
  </g>
  <g class="c">
    <path d="m84.7 7.1-.1.1V7Z" class="o"/>
    <path d="M86.9 6.3v.2-.4c.1-1.8-.3-3.4-1-3.5S84.6 4.1 84.5 6v1.2h-1V7a1.1 1.1 0 0 1 0-.8c0-2.1.7-4.1 1.8-4.1h.1c1.2 0 1.6 2.1 1.5 4.2Z" class="p"/>
    <path d="M83.5 7v.2l-.2-.1Zm1.2.1-.1.1V7Z"/>
    <path d="M86.9 6.1v.4h-1.1c.1-1.7-.2-2.8-.5-3a5.9 5.9 0 0 0-.7 2.9v1h-.1V6c.1-1.9.7-3.4 1.4-3.4s1.1 1.7 1 3.5Z" class="q"/>
  </g>
  <g class="c">
    <path d="M90.2 7.4h-.1v-.1a.1.1 0 0 0 .1.1Z" class="o"/>
    <path d="M92.4 6.6h-.1a.4.4 0 0 0 .1-.3c.1-1.8-.4-3.4-1-3.5S90.1 4.4 90 6.3v1.2h-1.1v-1c.1-2.1.7-4.1 1.9-4.1h.1c1.2 0 1.6 2.1 1.5 4.2Z" class="p"/>
    <path d="M88.9 7.3v.2h-.1a.1.1 0 0 0 .1-.2Zm1.3.1h-.1v-.1a.1.1 0 0 0 .1.1Z"/>
    <path d="M92.4 6.4a.4.4 0 0 1-.1.3h-1a5.5 5.5 0 0 0-.5-3.1 5.7 5.7 0 0 0-.7 3 1.1 1.1 0 0 0 0 .8v.2H90V6.3c.1-1.9.7-3.4 1.4-3.4s1.1 1.7 1 3.5Z" class="q"/>
  </g>
  <g class="c">
    <path d="M95.6 7.7h-.1v-.1a.1.1 0 0 1 .1.1Z" class="o"/>
    <path d="M97.9 6.9h-.1v-.2c.1-1.9-.3-3.4-1-3.5s-1.3 1.5-1.4 3.4v1.2h-1v-1c.1-2.1.7-4.1 1.9-4.1s1.7 2.1 1.6 4.2Z" class="p"/>
    <path d="M94.4 7.6v.2h-.1a.1.1 0 0 1 .1-.2Zm1.2.1h-.1v-.1a.1.1 0 0 1 .1.1Z"/>
    <path d="M97.8 6.7V7h-1a6.7 6.7 0 0 0-.5-3.1 5.4 5.4 0 0 0-.8 3v1h-.1V6.6c.1-1.9.8-3.4 1.4-3.4s1.1 1.6 1 3.5Z" class="q"/>
  </g>
  <g class="c">
    <path d="M101.1 8h-.1v-.1Z" class="o"/>
    <path d="M103.3 7.2V7c.1-1.9-.3-3.4-1-3.5S101 5 100.9 6.9v1.2h-1v-.2a1.1 1.1 0 0 1 0-.8c.1-2.1.7-4.1 1.8-4.1h.1c1.2 0 1.6 2.1 1.5 4.2Z" class="p"/>
    <path d="M99.9 7.9v.2Zm1.2.1h-.1v-.1Z"/>
    <path d="M103.3 7v.3h-1.1c.1-1.8-.2-2.8-.5-3.1a6.9 6.9 0 0 0-.7 3v1h-.1V6.9c.1-1.9.7-3.4 1.4-3.4s1.1 1.6 1 3.5Z" class="q"/>
  </g>
  <g class="c">
    <path d="M106.6 8.3h-.1v-.1Z" class="o"/>
    <path d="M108.8 7.5h-.1a.4.4 0 0 0 .1-.3c.1-1.9-.4-3.4-1-3.5s-1.3 1.5-1.4 3.4v1.3h-1.1V7.3c.1-2 .7-4 1.9-4h.1c1.2 0 1.6 2.1 1.5 4.2Z" class="p"/>
    <path d="M105.3 8.2v.2Zm1.3.1h-.1v-.1Z"/>
    <path d="M108.8 7.3a.4.4 0 0 1-.1.3h-1a5.5 5.5 0 0 0-.5-3.1 5.7 5.7 0 0 0-.7 3 1.1 1.1 0 0 0 0 .8v.2h-.1V7.2c.1-1.9.7-3.4 1.4-3.4s1.1 1.6 1 3.5Z" class="q"/>
  </g>
  <g class="c">
    <path d="M112 8.6h-.1v-.1Z" class="o"/>
    <path d="M114.3 7.8h-.1v-.2c.1-1.9-.3-3.4-1-3.5s-1.3 1.5-1.4 3.4v1.2h-1V7.6c.1-2 .7-4 1.9-4s1.7 2.1 1.6 4.2Z" class="p"/>
    <path d="M110.8 8.5v.2Zm1.2.1h-.1v-.1Z"/>
    <path d="M114.2 7.6v.3h-1.1v-.2a6.5 6.5 0 0 0-.5-3 5.4 5.4 0 0 0-.8 3v1h-.1V7.5c.1-1.9.8-3.4 1.4-3.4s1.2 1.6 1.1 3.5Z" class="q"/>
  </g>
  <g class="c">
    <path d="M117.5 8.9h-.1v-.1Z" class="o"/>
    <path d="M119.8 8.1h-.1v-.2c.1-1.9-.3-3.4-1-3.5s-1.3 1.5-1.4 3.4V9h-1V7.9c.1-2 .7-4.1 1.8-4.1a.1.1 0 0 1 .1.1c1.2 0 1.6 2.1 1.6 4.2Z" class="p"/>
    <path d="M116.3 8.8V9Zm1.2.1h-.1v-.1Z"/>
    <path d="M119.7 7.9v.3h-1.1V8c.1-1.7-.2-2.7-.5-3a6.9 6.9 0 0 0-.7 3v1h-.1V7.8c.1-1.9.7-3.4 1.4-3.4s1.1 1.6 1 3.5Z" class="q"/>
  </g>
  <g class="c">
    <path d="M123 9.2h-.1v-.1Z" class="o"/>
    <path d="M125.2 8.4h-.1a.4.4 0 0 0 .1-.3c.1-1.9-.4-3.4-1-3.5s-1.3 1.5-1.4 3.4v1.3h-1.1V8.2c.1-2 .7-4.1 1.9-4.1a.1.1 0 0 0 .1.1c1.2 0 1.6 2.1 1.5 4.2Z" class="p"/>
    <path d="M121.7 9.1v.2Zm1.3.1h-.1v-.1Z"/>
    <path d="M125.2 8.2a.4.4 0 0 1-.1.3h-1v-.2a5.4 5.4 0 0 0-.5-3 5.7 5.7 0 0 0-.7 3 1.1 1.1 0 0 0 0 .8v.2h-.1V8.1c.1-1.9.7-3.4 1.4-3.4s1.1 1.6 1 3.5Z" class="q"/>
  </g>
  <g class="c">
    <path d="M128.4 9.5h-.1v-.1Z" class="o"/>
    <path d="M130.7 8.7h-.1v-.2c.1-1.9-.3-3.4-1-3.5s-1.3 1.5-1.4 3.4v1.2h-1V8.5c.1-2 .7-4.1 1.9-4.1 1.2.1 1.7 2.2 1.6 4.3Z" class="p"/>
    <path d="M127.2 9.4v.2Zm1.2.1h-.1v-.1Z"/>
    <path d="M130.6 8.5v.3h-1.1v-.2a6.5 6.5 0 0 0-.5-3 5.4 5.4 0 0 0-.8 3v1h-.1V8.4c.1-1.9.8-3.4 1.4-3.4s1.2 1.6 1.1 3.5Z" class="q"/>
  </g>
  <g class="c">
    <path d="M133.9 9.8h-.1v-.1a.1.1 0 0 1 .1.1Z" class="o"/>
    <path d="M136.2 9h-.1v-.2c.1-1.9-.3-3.5-1-3.5s-1.3 1.5-1.4 3.4v1.2h-1V8.8c.1-2 .7-4.1 1.9-4.1 1.2.1 1.6 2.2 1.6 4.3Z" class="p"/>
    <path d="M132.7 9.7v.2h-.1a.1.1 0 0 1 .1-.2Zm1.2.1h-.1v-.1a.1.1 0 0 1 .1.1Z"/>
    <path d="M136.1 8.8v.3H135v-.2c.1-1.7-.2-2.7-.5-3a6.9 6.9 0 0 0-.7 3v1h-.1V8.7c.1-1.9.7-3.4 1.4-3.4s1.1 1.6 1 3.5Z" class="q"/>
  </g>
  <g class="c">
    <path d="M139.4 10.1h-.1V10Z" class="o"/>
    <path d="M141.6 9.3h-.1a.4.4 0 0 0 .1-.3c.1-1.9-.4-3.5-1-3.5s-1.3 1.5-1.4 3.4v1.2h-1.1v-1c.1-2 .7-4.1 1.9-4.1h.1c1.2.1 1.6 2.2 1.5 4.3Z" class="p"/>
    <path d="M138.1 10v.2Zm1.3.1h-.1V10Z"/>
    <path d="M141.6 9.1a.4.4 0 0 1-.1.3h-1v-.2a5.4 5.4 0 0 0-.5-3 5.7 5.7 0 0 0-.7 3v1h-.1V9c.1-1.9.7-3.4 1.4-3.4s1.1 1.6 1 3.5Z" class="q"/>
  </g>
  <g class="c">
    <path d="M144.9 10.4h-.2v-.2Z" class="o"/>
    <path d="M147.1 9.6h-.1v-.2c.1-1.9-.3-3.5-1-3.5s-1.3 1.5-1.4 3.4v1.2h-1V9.4c.1-2 .7-4.1 1.9-4.1 1.2.1 1.7 2.2 1.6 4.3Z" class="p"/>
    <path d="M143.6 10.3v.2Zm1.3.1h-.2v-.2Z"/>
    <path d="M147 9.4v.3h-1.1v-.2a6.5 6.5 0 0 0-.5-3 6 6 0 0 0-.8 3v1h-.1V9.3c.1-1.9.8-3.4 1.4-3.4s1.2 1.6 1.1 3.5Z" class="q"/>
  </g>
  <g class="c">
    <path d="M150.3 10.7h-.1v-.2Z" class="o"/>
    <path d="M152.6 9.9h-.1v-.2c.1-1.9-.3-3.5-1-3.5s-1.3 1.5-1.4 3.4v1.2h-1V9.7c.1-2 .7-4.1 1.9-4.1 1.2.1 1.6 2.2 1.6 4.3Z" class="p"/>
    <path d="M149.1 10.6v.2Zm1.2.1h-.1v-.2Z"/>
    <path d="M152.5 9.7v.3h-1.1v-.2c.1-1.7-.2-2.7-.5-3a6 6 0 0 0-.7 3v1h-.1V9.6c.1-1.9.7-3.4 1.4-3.4s1.1 1.6 1 3.5Z" class="q"/>
  </g>
  <g class="c">
    <path d="M155.8 11Z" class="o"/>
    <path d="M158 10.2V10c.1-1.9-.4-3.5-1-3.5s-1.3 1.5-1.4 3.4v1.2h-1.1V10c.1-2 .8-4.1 1.9-4.1h.1c1.2.1 1.6 2.2 1.5 4.3Z" class="p"/>
    <path d="M154.5 10.9Zm1.3.1Z"/>
    <path d="M158 10v.3h-1.1a5.4 5.4 0 0 0-.5-3 5 5 0 0 0-.7 3v.8h-.1V9.9c.1-1.9.7-3.4 1.4-3.4s1.1 1.6 1 3.5Z" class="q"/>
  </g>
  <path d="M7.7 67c-4-.2-6.6-1.8-7.3-3.9a3.2 3.2 0 0 1-.2-1.4L0 64.6c-.2 2.7 2.7 5 7.5 5.3l6.4.5v-2.9Z" class="j"/>
  <path fill="#b5b5b5" d="M134.9 76.3v3l-121-8.9v-2.9l121 8.8z"/>
  <path d="m166.9 23.5-11.4 49.8c-1 4-7.2 7-13.9 6.5l-6.7-.5v-3l6.8.5c6.7.5 12.9-2.5 13.8-6.6l11.2-48.7a2.7 2.7 0 0 1 .2 2Z" class="j"/>
  <path d="m166.9 20.5-.2 1-11.2 48.7c-.9 4.1-7.1 7.1-13.8 6.6l-6.8-.5 13.5-48.4L13.9 67.5 7.7 67c-4-.2-6.6-1.8-7.3-3.9a3.2 3.2 0 0 1-.2-1.4 6.5 6.5 0 0 1 .9-2.4L31.3 13c1.8-2.9 7.5-4.9 12.8-4.6L158 14.5c5.6.3 9.6 3 8.9 6Z" class="s"/>
  <path fill="#dcdcdc" d="M152.3 14.2 49.4 8.7 13.9 67.5l134.5-39.6 3.9-13.7z"/>
  <path d="m148.4 27.9-13.5 48.4-121-8.8 134.5-39.6z" class="u"/>
  <path d="M166.8 19.6a1.8 1.8 0 0 1-.2 1c-.5 1.3-2 2.6-4.8 3.4L84.5 46.7 33 16.7a4.2 4.2 0 0 1-1.5-1.5 1.7 1.7 0 0 1-.3-1c.1-2.8 5.7-5.9 11.9-5.6l115.8 6.3c5.1.2 8 2.4 7.9 4.7Z" class="s"/>
  <path d="m43.4 8.2 46.5 25.1L158 14.4 43.4 8.2z" class="u"/>
  <path d="M0 64.8v-.2m.2-2.9v-.2" class="a"/>
  <path d="M166.8 19.6v1.9c.1 1.7-1.5 3.5-5 4.5L84.5 48.7 33 18.7q-2-1.2-1.8-2.7v-1.8a1.7 1.7 0 0 0 .3 1 4.2 4.2 0 0 0 1.5 1.5l51.5 30L161.8 24c2.8-.8 4.3-2.1 4.8-3.4a1.8 1.8 0 0 0 .2-1Z" class="j"/>
  <path d="M31.2 16.2V16" class="a"/>
</svg>