<svg xmlns="http://www.w3.org/2000/svg" xmlns:xlink="http://www.w3.org/1999/xlink" viewBox="0 0 157.8 85.7">
  <defs>
    <linearGradient id="a" x1="80.2" x2="114.6" y1="7.5" y2="7.5" gradientUnits="userSpaceOnUse">
      <stop offset=".4" stop-color="#17589c"/>
      <stop offset=".6" stop-color="#0b66c3"/>
    </linearGradient>
    <linearGradient xlink:href="#a" id="b" x1="115.3" x2="157.8" y1="52.4" y2="52.4"/>
    <style>
      .d{fill:#17589c}.g{fill:#0e4782}
    </style>
  </defs>
  <path fill="none" d="M98.4 80.6z"/>
  <path fill="url(#a)" d="M114.6 8.1c-.1 1.8-1.6 3.5-4.7 4.9l-1.1.5c-6.6 2.3-16.7 2-23.2-.8-3.7-1.6-5.5-3.7-5.4-5.7s1.6-3.6 4.7-4.9a34 34 0 0 1 24.3.3c3.7 1.6 5.5 3.7 5.4 5.7Z" style="isolation:isolate"/>
  <path d="m0 41.2 21.4 9.4L66.2 31V12.3L0 41.2z" class="d"/>
  <path fill="#0b66c3" d="M66.2 12.3V31l21.4-9.4-21.4-9.3zm58.3 24.9-20.9-9.1v18l3.2 1.3h.4a31 31 0 0 1 8.1 1.1v-7.3Zm-20.9 8.9Z"/>
  <path fill="url(#b)" d="M146.6 44.6a48.7 48.7 0 0 0-16.2-3.9 87.5 87.5 0 0 0-15.1.5v7.3a28.3 28.3 0 0 1 4.1 1.4c4.1 1.8 6.2 3.6 6.3 5.5v2.1h4.7a48.7 48.7 0 0 1 16.2 3.9 31.9 31.9 0 0 1 4.9 2.5c3.6-2.5 5.6-5 6.2-7.5q1.4-6.4-11.1-11.8Z"/>
  <path d="m103.6 47.6 3.2-.2-3.2-1.3Z" class="g"/>
  <path d="m122.6 76.4 1.3-1a3.8 3.8 0 0 0 1.8-2.9v-17a3.2 3.2 0 0 1-.9 2.1 13.6 13.6 0 0 1-4.7 3l-9.3 4-28.1 12.1 19.7 8.5 17.7-7.6Z" class="d"/>
  <path d="m91.9 51.2 3.2-1.3a29 29 0 0 1 8.5-2.3v-1.5Z" class="g"/>
  <path d="M103.6 28.1 37 56.8l20.9 9.1 34-14.7 11.7-5.1v-18z" class="d"/>
  <path fill="#084c91" d="M130.4 57.7h-4.7v14.8a3.8 3.8 0 0 1-1.8 2.9l-1.3 1-2.5 1.2-17.7 7.6 1.2.5 22.1-9.4 15.4-6.7a57.7 57.7 0 0 0 10.4-5.5 31.9 31.9 0 0 0-4.9-2.5 48.7 48.7 0 0 0-16.2-3.9Z"/>
</svg>