<svg xmlns="http://www.w3.org/2000/svg" xml:space="preserve" id="Layer_1" x="0" y="0" version="1.1" viewBox="0 0 263.3 144.2">
  <style>
    .st0{opacity:.14;enable-background:new}
  </style>
  <path d="M263.3 139.3c-.1 2.6-6.1 4.7-10.9 4.9-2.4.1-4.7-.3-7-1-22.1-4.2-54.4-10.4-93.4-18.8C95.3 112.1 34.8 98.9 35.7 91.6c.1-1.3 2.3-2.6 46.4-8 25.2-3 37.7-4.3 40.5-4.6 51.1-6.3 96.5 40.4 132.7 54.6 2.1.9 8.2 3.2 8 5.7z" class="st0"/>
  <path fill="#2c93e1" d="M129.9 3.8c-4-3.8-10.1-4.3-14.6-1.1L82.9 26.1a16.8 16.8 0 0 0-7 12.6l-.4 6.8 182.8 97.1.3-6.3a3 3 0 0 1 1-2l.6-.7c.7-.6.8-1.7.2-2.4l-.2-.2L129.9 3.8z"/>
  <path d="m75.4 46.6.5-6.6c0-.9 0-1.8.2-2.7.3-1.5.7-3.1 1.3-4.5l181.2 103.5-.3 6.3-182.9-96z" class="st0"/>
  <path fill="#2572d7" d="m258.3 142.6-179.5-56a9 9 0 0 1-5.7-5.6l-3-8.7L256 138l2.3 4.6z"/>
  <path fill="#30a3e6" d="M256 138c-.8.3-1.6.6-2.5.7a15 15 0 0 1-7.3-.8l-3.1-1.1-173-64.5-67.2-25a4.5 4.5 0 0 1 1.3-8.7l46.1-2.9c4.6-.3 9.1.7 13.2 2.8l12.1 6.2L256 138z"/>
  <path d="M102 12.3a9.8 9.8 0 0 0 3.9 6c1.7 1 4.1 1.6 8.9.3 8.2-2 14.8-7 18.9-11l-2.2-2.2-3-2.7c-1-.8-2.1-1.5-3.2-2-2.9-1.4-6.1-.4-7.3 0-4 1.2-5.1 3.4-11.4 8.3l-4.6 3.3z" class="st0"/>
  <path fill="#211928" d="M106.6 9c.5 1.6 1 2.3 1.5 2.8 0 0 .6.6 1.3.9 3 1.5 10.4-3.2 11-3.6A49.5 49.5 0 0 0 131 0h-25.5c-.1 2.2 0 4 .2 5.3.2.8.4 2.1.9 3.7z"/>
</svg>