<svg xmlns="http://www.w3.org/2000/svg" viewBox="0 0 203.3 292.4">
  <defs>
    <style>
      .a,.l,.q{fill:#fff}.b{opacity:.14}.d{fill:#c47a33}.e{fill:#df8a3a}.f{fill:#1a8dd4}.g{fill:#1da1f3}.h{fill:#1c9ae8}.l,.m{opacity:.2}.n{opacity:.1}.p{fill:#1a92db}.q{opacity:.08}
    </style>
  </defs>
  <circle cx="107.6" cy="82.2" r="24.7" class="a"/>
  <circle cx="157.9" cy="82.2" r="20" class="a"/>
  <path d="M202.5 265.7c-1.9-3.9-7-6.6-12.8-8.7-25-9.2-43.7-1.9-81.6-4.4-29.1-1.8-40.4-7.5-78.3-7.5-9 0-21.9.3-24.2 4.1s3 5.9 16.1 16c19.2 14.8 17.1 14.1 20 15.7 12.3 6.8 24.5 6.1 61.1 7.8 57.6 2.8 66.1 6.3 79.9.6 12.2-5.1 23.7-15.5 19.8-23.6Z" class="b"/>
  <path fill="none" d="M129.1 275.2Z"/>
  <path d="M85.7 266.8c-5.3.2-2.8.3-5.5.4a4.6 4.6 0 0 0-2.1.5 3.5 3.5 0 0 0-.9.7.7.7 0 0 0 .6.3h.3a36.7 36.7 0 0 1 7.4-1.1 6.7 6.7 0 0 0 1.9-.9Zm-.7 2.1a63 63 0 0 0-10.7 5.5l-3.7 2.5a.1.1 0 0 1 .1.1l.5-.2a74.2 74.2 0 0 1 15-7.3l3.3-1 .4-1.3Zm46.5-5.4-2.7-.4 2.6 1.2 6.6.7h.1a1.1 1.1 0 0 0 .9-.5l-4.7-.6Zm-3.4 5.2a37.5 37.5 0 0 1 1.7 6 .8.8 0 0 0 .2-.7 30.5 30.5 0 0 0-2-6.7 24.4 24.4 0 0 0-1.4-2.8l-.7-.3a47.5 47.5 0 0 1 2.2 4.5Zm-26.5-2.5h-.6a.3.3 0 0 1-.1-.2l-.3-.2a.7.7 0 0 1-.2.6 1.1 1.1 0 0 1-.7.3h-3.6c-1.5-.1-3.5-.3-4.1.7a.6.6 0 0 0-.1.4 23 23 0 0 1 4.5-.5h3.5a1 1 0 0 0 1-.5h1.6a2.6 2.6 0 0 0-.9-.6Z" class="d"/>
  <path d="m99.5 241.4-9 24.4a40 40 0 0 0-12.9.9 1 1 0 0 0-.7.8 1.4 1.4 0 0 0-1 1.4 1 1 0 0 1 1.1-.7.2.2 0 0 0 .2.2 4 4 0 0 1 3-1.2c1.2-.1 3.8-.4 7.2-.5a6.7 6.7 0 0 1-1.9.9c-2 .7-17 6.7-15.7 8.8a1.7 1.7 0 0 0-.1 1.2 2.2 2.2 0 0 1 .5-.8h.4a62.7 62.7 0 0 1 19.3-9.7l-.4 1.3c-.6 1.7-3.7 9.1-2.2 10.1a5 5 0 0 0 .2 1.2 4.9 4.9 0 0 1 .4-1.1.8.8 0 0 0 .8-.7 50.4 50.4 0 0 1 3.2-10.2h.1c.6-2.2 4.3-.7 7.7-1.1a1.1 1.1 0 0 0 1.1-1c-2.7-.9-6-.3-8.8 0l9-24.7a1 1 0 0 0-1.5.5Z" class="e"/>
  <path d="m92.7 265.7 8.6-23.6a.9.9 0 0 0-.3-1.1l-9 24.7Z" class="d"/>
  <path d="M143.3 273c-.2-.7-.7-.8-1.3-1.4a41.8 41.8 0 0 0-13.2-8.5c3.6.6 6.2.8 10.2 1.4.6-.1 1.3 0 1.5.7.2-.9-.8-1.5-1.5-1.6a1.2 1.2 0 0 0-.8-.6c-4.3-.5-8.6-1-13-1.3l-.9.2c0-1.8-.4-15-1.2-17.9a.9.9 0 0 0-1 1.1c.6 5.4 1 10.9 1.2 16.4-1.6 0-6.9-1-7.5.5s-1.4.4-1.5 1 1-.3 1.5-.3a1.1 1.1 0 0 0 1 .6 26.6 26.6 0 0 1 6.9.3 27.6 27.6 0 0 1 4.3 10.8 1.1 1.1 0 0 0 .8.8h.1a4.9 4.9 0 0 1 .4 1.1 7 7 0 0 0 .3-1.4.2.2 0 0 0 .2-.2 34.1 34.1 0 0 0-1.4-5.2 38.1 38.1 0 0 0-2.5-5.3l.7.3a47.3 47.3 0 0 1 14.8 8.4.9.9 0 0 0 1 .1c.4 0 1 .8.9 1.1a2.1 2.1 0 0 0 0-1.1Z" class="e"/>
  <path d="m124.3 261.9.9-.2a156.2 156.2 0 0 0-1.1-16.8 1.1 1.1 0 0 0-1-.9c.8 2.9 1.2 16.1 1.2 17.9Zm17.7 9.7.6.5.4.3h.1c.2-.7-.9-1.8-4.1-3.8a58.1 58.1 0 0 0-5.6-3.2l4.8 3.5a42.7 42.7 0 0 1 3.8 2.7Z" class="d"/>
  <path d="M35.3 193.1a29.1 29.1 0 0 0-7.5-13.8 29.6 29.6 0 0 0-17.7-8.7 66.9 66.9 0 0 1 14.2 10 68.6 68.6 0 0 1 11 12.5Z" class="f"/>
  <path d="M35.3 193.1a36.3 36.3 0 0 0-14.4-14.3A36.8 36.8 0 0 0 0 174.7a90.2 90.2 0 0 1 14.3 5.2 96.8 96.8 0 0 1 21 13.2Z" class="g"/>
  <path d="M34.9 193.1a36.5 36.5 0 0 0-.9-9.6 29.7 29.7 0 0 0-8.2-16.9 25.7 25.7 0 0 0-11.8-6.2 72.6 72.6 0 0 1 9.6 11 81.1 81.1 0 0 1 11.3 21.7Z" class="g"/>
  <path d="M35.3 193.1c-.5-1-4.3-8.9-.2-17a19.4 19.4 0 0 1 8.5-8.2 38.5 38.5 0 0 0-8.3 25.2Z" class="h"/>
  <path d="M35.3 193c.2-.2-1.8-2.6-4.6-4.2s-6.3-2.9-13.3-1.6a17.9 17.9 0 0 1 6.7 1.3l1.5.6-1.4 1.1a15.3 15.3 0 0 1 4.1.2c4.2.8 6.8 2.9 7 2.6Z" class="h"/>
  <path fill="#0a0d0d" d="M105.4 71.5a1.8 1.8 0 0 0-1 .2 5.7 5.7 0 0 1 .3 1.5c0 1.8-1.2 3.3-2.6 3.3a2 2 0 0 1-1.1-.3 15.4 15.4 0 0 0-.8 5c0 5.4 2.4 9.8 5.2 9.8s5.2-4.4 5.2-9.8-2.3-9.7-5.2-9.7Zm50.8-1.8-1.1.2a3.7 3.7 0 0 1 .3 1.5c0 1.8-1.2 3.3-2.6 3.3a2 2 0 0 1-1.1-.3 15.9 15.9 0 0 0-.7 5c0 5.4 2.3 9.8 5.2 9.8s5.2-4.4 5.2-9.8-2.4-9.7-5.2-9.7Z"/>
  <path fill="#1679b6" d="M197.1 190.9a39.7 39.7 0 0 1-20.1 25.3 58.2 58.2 0 0 0 5.9-10.1c4.8-10.1 5.4-22.4 4.9-42.8l-.1-3.3a29.6 29.6 0 0 1 6.5 7.9c5.7 10 3.5 20.3 2.9 23Z"/>
  <path d="M183.2 101.1c-2.1-11.4-3.9-21.2-7-30a64.8 64.8 0 0 0-12.7-21.7c-4.7-5.3-14.4-16.1-30.1-18.1s-28.6 6.2-32.7 9a66 66 0 0 0-24.9 37.4c-3.1 10.1-2.1 13.4-3.4 28.2a2476.7 2476.7 0 0 1 39.6 46.3 43.1 43.1 0 0 0 7.2 5.7c10.3 6.4 26.9 10.9 40.6 3.9 6.6-3.4 10.3-8.3 15.3-14.8a79 79 0 0 0 11.1-20.2 187.5 187.5 0 0 0-3-25.7Zm-20.8-12.9a70.2 70.2 0 0 1-17.1-.8l11 9.9a1.7 1.7 0 0 1 .6 1.6 1.9 1.9 0 0 1-.7 1.2l-14 9.1a4.7 4.7 0 0 1-5.3 0 31.5 31.5 0 0 1-8.2-7 14.2 14.2 0 0 1-1.2-2.5 14.9 14.9 0 0 1 .7-9.3 3.3 3.3 0 0 1 .6-1 161.1 161.1 0 0 1-18 2.4l-4 .2H105a155.1 155.1 0 0 1-20-.8 31.7 31.7 0 0 1 2.2-17.4A25.7 25.7 0 0 1 96 62.7c1-.7 12.6-8.6 23.4-3 6.3 3.1 9 9.1 10.2 13l.9 3.4a25.9 25.9 0 0 1-.4 11.4 10.4 10.4 0 0 1 11.4-2.5 28.4 28.4 0 0 1 1.6-12.5 20.2 20.2 0 0 1 8.4-10.7c1.1-.7 5.7-3.5 10.9-2.4s9.4 5.4 12.1 11.8a37.8 37.8 0 0 1 2.5 14.4 74 74 0 0 1-14.6 2.6Z" class="g"/>
  <path d="M85 91.3a20.7 20.7 0 0 0 7.7 8.1c4.9 2.7 9.6 2.4 13.5 2.1a35.1 35.1 0 0 0 19.3-7.9 40.1 40.1 0 0 0 4.6-4.4Zm57.3-4.3a84.6 84.6 0 0 0 11.8 1.4 70.7 70.7 0 0 0 12.4-.6 65.6 65.6 0 0 0 10.5-2.2 12.7 12.7 0 0 1-1.3 3.9c-3.4 6.1-12.6 7.2-18.3 6.4a23.7 23.7 0 0 1-15.1-8.9Z" class="f"/>
  <path d="m187.8 163.3-.1-3.3-.8-18.2-.7-15a79 79 0 0 1-11.1 20.2c-5 6.5-8.7 11.4-15.3 14.8-13.7 7-30.3 2.5-40.6-3.9a43.1 43.1 0 0 1-7.2-5.7 2476.7 2476.7 0 0 0-39.6-46.3l-1.2 10.9-.6 4.3a166.5 166.5 0 0 1-6.8 34.5l-3 7.1a53 53 0 0 1 11.2-5.4c4.5-1.6 8.2-2.8 12.7-2 8.1 1.5 15.6 9.9 18.6 17.7 6 15.2-2.5 29.7-4.4 32.9s-7.5 12.7-18.2 16.5-21.7-.2-25.5-1.8a41.7 41.7 0 0 1-16.1-11.9c.7 1.7 1.6 3.4 2.5 5.1 17.9 31 69.5 45 106.8 26.5a78.4 78.4 0 0 0 28.6-24.1 58.2 58.2 0 0 0 5.9-10.1c4.8-10.1 5.4-22.4 4.9-42.8Z" class="h"/>
  <path fill="#1ea4f7" d="M102.3 205.6c-1.7 3.5-6.6 13.8-18.2 18.7a31.9 31.9 0 0 1-14.2 2.2 40.3 40.3 0 0 1-15.8-4.4l-2.4-1.5c-1.1-.7-16.7-12-15.3-14.4.3-.5 1.1-.2 4.9-.4l4.9-.6a52.8 52.8 0 0 1-17.1-3.2c-1.9-.7-5.9-2.2-5.7-3.6s2.5-1.3 6.3-2.3a75.2 75.2 0 0 0 9.7-3.1 38 38 0 0 1-15 1.2c-2.2-.3-9.4-1.2-9.5-3.2s13.3-2.9 26.2-12.8l5.8-4.7c4.8-4 9-7.7 13.9-10.8a53 53 0 0 1 11.2-5.4c4.5-1.6 8.2-2.8 12.7-2 11.7 2 17.5 15.2 18.6 17.7 6.9 15.4.2 30.1-1 32.6Z"/>
  <path d="m129.6 72.7-10.1.3-10.7.3h-.8l-8.2.2-12.6.4A25.7 25.7 0 0 1 96 62.7c1-.7 12.6-8.6 23.4-3 6.3 3.1 9 9.1 10.2 13Zm44.9-1.5-9.5.4-6.4.2-15.5.7a20.2 20.2 0 0 1 8.4-10.7c1.1-.7 5.7-3.5 10.9-2.4s9.4 5.4 12.1 11.8Z" class="f"/>
  <path d="M94.1 51.6a37.7 37.7 0 0 1 18.4-12.9c7.5-2.4 15.2-2.3 15.4-1.4s-2.8 1.2-8.7 3.6a123.8 123.8 0 0 0-15.8 7.9c-7.7 4.8-11.7 9.1-12.4 8.5s1.6-3.9 3.1-5.7Z" class="l"/>
  <path d="M104.3 101.6a31.5 31.5 0 0 0 8-1.2 39.2 39.2 0 0 0 10.3-4.6 27.8 27.8 0 0 0 4.1-3.2 13.5 13.5 0 0 0 2.7-3.4 13.2 13.2 0 0 0 1.4-5.2 26.3 26.3 0 0 0-.1-7.2 33.7 33.7 0 0 0-.9-3.7 25 25 0 0 0-3.2-6.9 17.8 17.8 0 0 0-5-5.2 18 18 0 0 0-8.5-3.2 18.2 18.2 0 0 0-8.5.9 15.1 15.1 0 0 1 8.7.1c8.5 2.9 12.9 14.3 11.4 23.3s-9.6 17.4-20.4 19.5Z" class="m"/>
  <path d="M127.7 182.3c-9.9 7.4-2.4 21.3-14.1 42.8a35.4 35.4 0 0 1-11.9 14c-9 5.5-18.8 4.5-22.8 3.8a91.4 91.4 0 0 0 24.9 5.4 84.4 84.4 0 0 0 22.6-1.1 83.6 83.6 0 0 0 31.1-12.5 71.7 71.7 0 0 0 16.9-15.1 57.1 57.1 0 0 0 11.2-21.1c1.7-6 1.9-10.8 2.3-20.3a1339.6 1339.6 0 0 0-1.2-42.5c-.8-12.8-1.3-21.4-3-32.2a236.9 236.9 0 0 0-6.3-28.4h-.1c.1-.1 15.4 44.4-.8 77-2.3 4.6-10.4 20.9-26.6 26.4-11.1 3.8-15.8-1.1-22.2 3.8Z" class="n"/>
  <path d="M104.4 242.8a98.1 98.1 0 0 1-25.5.1 91.4 91.4 0 0 0 24.9 5.4 84.4 84.4 0 0 0 22.6-1.1 83.6 83.6 0 0 0 31.1-12.5 71.7 71.7 0 0 0 16.9-15.1 57.1 57.1 0 0 0 11.2-21.1c1.7-6 1.9-10.8 2.3-20.3a1339.6 1339.6 0 0 0-1.2-42.5c-.8-12.8-1.3-21.4-3-32.2a236.9 236.9 0 0 0-6.3-28.4h-.1s9 38.2 6 74.8c-1.7 21.6-3.3 41.5-17.9 60.1-20.2 25.7-51.5 31.4-61 32.8Z" class="n"/>
  <path d="M106.3 189.4a44.7 44.7 0 0 1-4 16.2 36.1 36.1 0 0 1-9.6 13.3 34.2 34.2 0 0 1-18.9 7.7 38.7 38.7 0 0 1-22.1-6c-.6-.4-2.8-1.9-5.5-4s-4.1-3.4-5.4-4.5a42.9 42.9 0 0 0 17.9 7.5 42.1 42.1 0 0 0 26.5-4.3 44.5 44.5 0 0 0 21.1-25.9Zm62.9-126.3a35.9 35.9 0 0 1 3 3.7 23.4 23.4 0 0 1 2.5 5.1 32.5 32.5 0 0 1 2.1 9.3 13.6 13.6 0 0 1 .2 4.4 11.6 11.6 0 0 1-2.5 5.6 11.8 11.8 0 0 1-4.8 3.3 21.1 21.1 0 0 1-6.7 1.6 30.2 30.2 0 0 1-8.4-.7c2.9.3 8.2.6 12.4-2.6 7-5.2 8.8-17.8 2.2-29.7Zm-75.7 1.6a29.2 29.2 0 0 0-8.4 16.6 30.6 30.6 0 0 0-.1 10 16.8 16.8 0 0 0 2.2 3.2 22.3 22.3 0 0 0 2.9 3.1 13.8 13.8 0 0 1-3.9-5.8c-.2-.7-.8-2.5-.4-6.8a33.7 33.7 0 0 1 3.8-14.4 32.8 32.8 0 0 1 3.9-5.9Z" class="m"/>
  <path d="M95.5 165.5c.3-.6-6.5-6.7-15.5-7a23.3 23.3 0 0 0-9.3 1.8c-4.9 1.9-8.8 5.2-8.4 5.9s2.1-.6 6.9-1.8a38.4 38.4 0 0 1 9.3-1.6 39.3 39.3 0 0 1 10.1 1c4.8.9 6.7 2 6.9 1.7Z" class="l"/>
  <path fill="#fff" d="M62.4 159.2c7.2-6.8 13.2-8.3 17.4-8.4s9.5 2.4 12.3 0 1.8-8.4 1.5-9.5c-1.2-5.9-5.2-9.3-8.4-12.5a64.8 64.8 0 0 1-13.1-20.1l-2.5 19.7c-.4 3-1 7.1-2 12.4a85.9 85.9 0 0 1-2.5 11.1c-1 3-2 5.5-2.7 7.3Z" opacity=".2"/>
  <path d="M127.9 30.9a14.9 14.9 0 0 1 7.4 1.9 16 16 0 0 1 6.3 6.7 2 2 0 0 1 .3-1.7c1.6-1.5 8.7 3.5 11 5.2 4.7 3.4 13.5 11.2 23.9 30.1a72.8 72.8 0 0 0-4.2-10.4 70.6 70.6 0 0 0-11.4-15.8c-3.6-3.7-8-8.2-15-11.6a46.8 46.8 0 0 0-18.3-4.4Z" class="n"/>
  <path d="M161.8 11.3a43.5 43.5 0 0 0-16.5 2.9c-4.7 1.8-11.2 4.2-15 10.7a21 21 0 0 0-2.4 6 79.9 79.9 0 0 1 10.8-8.7 83.6 83.6 0 0 1 23.1-10.9Z" class="g"/>
  <path d="M161.8 11.3a83.6 83.6 0 0 0-23.1 10.9 79.9 79.9 0 0 0-10.8 8.7 80.4 80.4 0 0 0 19.6-8.5 65.8 65.8 0 0 0 8-5.6h-6l6.8-.6a70 70 0 0 0 5.5-4.9Zm-37.9 9.8a26 26 0 0 0 4 9.8 64.2 64.2 0 0 1-2.2-15.6 66.7 66.7 0 0 1 .8-11.6 28.5 28.5 0 0 0-2.6 17.4Z" class="p"/>
  <path d="M123.9 21.1a28.5 28.5 0 0 1 2.6-17.4c-.8.8-6.4 6.9-5.2 15.6a19 19 0 0 0 6.6 11.6 26 26 0 0 1-4-9.8Z" class="g"/>
  <path d="M113.8 15.5a35 35 0 0 0 14.1 15.4 59.4 59.4 0 0 1-11.5-15.1A67.3 67.3 0 0 1 110.5 0a35.9 35.9 0 0 0 3.3 15.5Z" class="p"/>
  <path d="M113.8 15.5A35.9 35.9 0 0 1 110.5 0a28.4 28.4 0 0 0-1 7.4c0 7.4 3.3 17.5 11.7 21.7a18.2 18.2 0 0 0 6.7 1.8 35 35 0 0 1-14.1-15.4Z" class="g"/>
  <path d="M88.1 73.9h3.5a27.4 27.4 0 0 1 13-15.1A26.2 26.2 0 0 0 93.4 65a20.1 20.1 0 0 0-5.3 8.9Z" class="q"/>
  <path d="M151.1 62a22.7 22.7 0 0 0-6.8 7.4A24.8 24.8 0 0 0 142 76a32.6 32.6 0 0 0 .2 13 34.6 34.6 0 0 1 .6-8.8 41.2 41.2 0 0 1 8.3-18.2Z" class="m"/>
  <path d="m143.1 72.5 4.3-.2a19.4 19.4 0 0 1 11.7-13.1 20.3 20.3 0 0 0-6.8 2.1 22.1 22.1 0 0 0-4.3 3.2 21.2 21.2 0 0 0-4.9 8Z" class="q"/>
  <path d="M129.1 102.7a14.3 14.3 0 0 0 3.3 7c1.9 2.2 6 5.5 9.1 4.3s1.8-2 4-4.9a27.9 27.9 0 0 1 6-6Z" class="m"/>
  <path fill="#dab239" d="m156.3 97.3-11-9.9-.6-.5a15 15 0 0 0-3.2-1.9 10.4 10.4 0 0 0-11.4 2.5 12.7 12.7 0 0 0-1.3 1.9 3.3 3.3 0 0 0-.6 1 14.9 14.9 0 0 0-.7 9.3 14.2 14.2 0 0 0 1.2 2.5l28.2-3.3a1.7 1.7 0 0 0-.6-1.6Z"/>
  <path fill="#cb972b" d="M156.9 98.9a1.9 1.9 0 0 1-.7 1.2l-14 9.1a4.7 4.7 0 0 1-5.3 0 31.5 31.5 0 0 1-8.2-7Z"/>
  <path d="m128.7 102.2 28.2-3.3-11.4 1.7-16.1 2.4Z" class="b"/>
  <path d="M135 87.2a10.9 10.9 0 0 1 4.7 1.1c2.4 1.1 6.4 3.1 6.3 3.5s-1.4-.5-4.2-1.1-4.8-.7-7.2-2c-.5-.2-1.6-.8-1.5-1.2s1.5-.4 1.9-.3Z" class="l"/>
  <path d="M134.1 107.3a19.1 19.1 0 0 0 4.3.1 17.3 17.3 0 0 0 6.2-1.6 36.2 36.2 0 0 0 5.3-2.9 53.7 53.7 0 0 1 6.6-3.1l-4.7 3.1-6.5 4.3-2.3 1.5a5.6 5.6 0 0 1-2.3 1.2h-1l-1.6-.2-1.2-.6a26.7 26.7 0 0 1-2.8-1.8Z" class="m"/>
  <path d="M156.6 147a21.2 21.2 0 0 0-3.4 6.5l-3.2-6.2-3.6 12a61.9 61.9 0 0 0-14.1-18.5l1.3 9.9-7.1-10.6-.1 7.9a81.8 81.8 0 0 0-10.7-11.3 116 116 0 0 1 11.7 14.5l.4-6.5 8.6 13.7-1.4-12.1a65.7 65.7 0 0 1 11.8 18.1c1.3-4.4 2.5-8.9 3.6-13.3l3.3 5.6a21 21 0 0 1 9.6-15.3 19 19 0 0 0-6.7 5.6Z" class="h"/>
  <path d="M19.8 193.4a112.2 112.2 0 0 0 13.3-1.3A121.8 121.8 0 0 0 52 187c4.9-1.6 8.8-3.2 11.6-4.4-4.7 2.5-8.7 4.4-11.7 5.8a74.7 74.7 0 0 1-12.5 4.6 52.3 52.3 0 0 1-7.6 1.4 36.8 36.8 0 0 1-12-1Zm9.3 8.6c5.2.7 9.6 1 12.9 1.2a127.8 127.8 0 0 0 26.1-.9l7.3-1.4a88.1 88.1 0 0 1-15.7 3.6 69 69 0 0 1-13.5.7 72.6 72.6 0 0 1-17.1-3.2Z" class="m"/>
  <path d="M27.1 198c-.2-.8 8.8-1.9 23.8-7.5 8.6-3.2 13.8-5.7 14.3-4.8s-2.9 4-6.4 6.1a28 28 0 0 1-11.1 3.6 100 100 0 0 1-20.6 2.6Zm14.2 10c-.1-.5 6.5-.2 17.9-2.3 6.5-1.2 10.5-2.4 10.7-1.6s-2.6 2.5-5.3 3.5a20.5 20.5 0 0 1-8.3 1.2 61 61 0 0 1-15-.8Zm-21.1-17.6c-.2-.6 6.9-2.4 18.3-8.4 6.5-3.4 10.4-6 10.9-5.3s-1.9 3.5-4.5 5.5a22.9 22.9 0 0 1-8.5 4c-9.6 2.9-16 4.8-16.2 4.2Z" class="l"/>
  <path fill="#ca962b" d="M136.2 93.7a4.3 4.3 0 0 1-2.6-.5c-.9-.5-1.2-.9-.6-1a5.4 5.4 0 0 1 2.8.6c.8.4 1 .8.4.9Z"/>
</svg>